{
  "accessors": [
    {
      "bufferView": 2,
      "componentType": 5126,
      "count": 2644,
      "max": [
        1.6477417945861816,
        4.312952995300293,
        0.0
      ],
      "min": [
        5.960464477539063e-08,
        0.0,
        -0.11279398947954178
      ],
      "type": "VEC3"
    },
    {
      "bufferView": 2,
      "byteOffset": 31728,
      "componentType": 5126,
      "count": 2644,
      "max": [
        1.0,
        1.0,
        1.0
      ],
      "min": [
        -1.0,
        -1.0,
        -1.0
      ],
      "type": "VEC3"
    },
    {
      "bufferView": 1,
      "componentType": 5126,
      "count": 2644,
      "max": [
        0.7384474277496338,
        0.9264706969261169
      ],
      "min": [
        0.2825767993927002,
        0.06812650710344315
      ],
      "type": "VEC2"
    },
    {
      "bufferView": 0,
      "componentType": 5125,
      "count": 4248,
      "type": "SCALAR"
    },
    {
      "bufferView": 2,
      "byteOffset": 63456,
      "componentType": 5126,
      "count": 1316,
      "max": [
        1.568706750869751,
        2.291534185409546,
        0.08998428285121918
      ],
      "min": [
        0.018544554710388184,
        1.7921637296676636,
        -0.2357833981513977
      ],
      "type": "VEC3"
    },
    {
      "bufferView": 2,
      "byteOffset": 79248,
      "componentType": 5126,
      "count": 1316,
      "max": [
        0.9999990463256836,
        1.0,
        1.0
      ],
      "min": [
        -0.9999991059303284,
        -0.9993314146995544,
        -1.0
      ],
      "type": "VEC3"
    },
    {
      "bufferView": 1,
      "byteOffset": 21152,
      "componentType": 5126,
      "count": 1316,
      "max": [
        0.34581753611564636,
        0.5276331901550293
      ],
      "min": [
        0.2877073884010315,
        0.43170279264450073
      ],
      "type": "VEC2"
    },
    {
      "bufferView": 0,
      "byteOffset": 16992,
      "componentType": 5125,
      "count": 2304,
      "type": "SCALAR"
    },
    {
      "bufferView": 2,
      "byteOffset": 95040,
      "componentType": 5126,
      "count": 747,
      "max": [
        1.0920876264572144,
        1.266713261604309,
        0.06385153532028198
      ],
      "min": [
        -1.0847833156585693,
        -3.33656644821167,
        -0.04751868546009064
      ],
      "type": "VEC3"
    },
    {
      "bufferView": 2,
      "byteOffset": 104004,
      "componentType": 5126,
      "count": 747,
      "max": [
        1.0,
        1.0,
        1.0
      ],
      "min": [
        -1.0,
        -1.0,
        -0.9999443888664246
      ],
      "type": "VEC3"
    },
    {
      "bufferView": 1,
      "byteOffset": 31680,
      "componentType": 5126,
      "count": 747,
      "max": [
        0.8206958174705505,
        0.9868635535240173
      ],
      "min": [
        0.1980055272579193,
        0.07083048671483994
      ],
      "type": "VEC2"
    },
    {
      "bufferView": 0,
      "byteOffset": 26208,
      "componentType": 5125,
      "count": 1203,
      "type": "SCALAR"
    }
  ],
  "asset": {
    "extras": {
      "author": "Mário Mendes (https://sketchfab.com/mariomendesdeveloper)",
      "license": "CC-BY-4.0 (http://creativecommons.org/licenses/by/4.0/)",
      "source": "https://sketchfab.com/3d-models/house-door-8082816a90904e76b45bc6751435412b",
      "title": "House Door"
    },
    "generator": "Sketchfab-12.65.0",
    "version": "2.0"
  },
  "bufferViews": [
    {
      "buffer": 0,
      "byteLength": 31020,
      "name": "floatBufferViews",
      "target": 34963
    },
    {
      "buffer": 0,
      "byteLength": 37656,
      "byteOffset": 31020,
      "byteStride": 8,
      "name": "floatBufferViews",
      "target": 34962
    },
    {
      "buffer": 0,
      "byteLength": 112968,
      "byteOffset": 68676,
      "byteStride": 12,
      "name": "floatBufferViews",
      "target": 34962
    }
  ],
  "buffers": [
    {
      "byteLength": 181644,
      "uri": "scene.bin"
    }
  ],
  "images": [
    {
      "uri": "textures/door_baseColor.jpeg"
    }
  ],
  "materials": [
    {
      "doubleSided": true,
      "name": "door",
      "pbrMetallicRoughness": {
        "baseColorTexture": {
          "index": 0
        },
        "metallicFactor": 0.0,
        "roughnessFactor": 0.8211145618000169
      }
    },
    {
      "doubleSided": true,
      "name": "puller",
      "pbrMetallicRoughness": {
        "baseColorFactor": [
          0.119276,
          0.0680835,
          0.000294294,
          1.0
        ],
        "metallicFactor": 0.0,
        "roughnessFactor": 0.9834368530894078
      }
    },
    {
      "doubleSided": true,
      "name": "door_frame",
      "pbrMetallicRoughness": {
        "baseColorTexture": {
          "index": 0
        },
        "metallicFactor": 0.0,
        "roughnessFactor": 0.8211145618000169
      }
    }
  ],
  "meshes": [
    {
      "name": "door_door_0",
      "primitives": [
        {
          "attributes": {
            "NORMAL": 1,
            "POSITION": 0,
            "TEXCOORD_0": 2
          },
          "indices": 3,
          "material": 0,
          "mode": 4
        }
      ]
    },
    {
      "name": "door_puller_0",
      "primitives": [
        {
          "attributes": {
            "NORMAL": 5,
            "POSITION": 4,
            "TEXCOORD_0": 6
          },
          "indices": 7,
          "material": 1,
          "mode": 4
        }
      ]
    },
    {
      "name": "frame_door_frame_0",
      "primitives": [
        {
          "attributes": {
            "NORMAL": 9,
            "POSITION": 8,
            "TEXCOORD_0": 10
          },
          "indices": 11,
          "material": 2,
          "mode": 4
        }
      ]
    }
  ],
  "nodes": [
    {
      "children": [
        1
      ],
      "matrix": [
        1.0,
        0.0,
        0.0,
        0.0,
        0.0,
        2.220446049250313e-16,
        -1.0,
        0.0,
        0.0,
        1.0,
        2.220446049250313e-16,
        0.0,
        0.0,
        0.0,
        0.0,
        1.0
      ],
      "name": "Sketchfab_model"
    },
    {
      "children": [
        2
      ],
      "matrix": [
        0.009999999776482582,
        0.0,
        0.0,
        0.0,
        0.0,
        0.0,
        0.009999999776482582,
        0.0,
        0.0,
        -0.009999999776482582,
        0.0,
        0.0,
        0.0,
        0.0,
        0.0,
        1.0
      ],
      "name": "4157eac7465548129230acd22ff8cfc8.fbx"
    },
    {
      "children": [
        3,
        6
      ],
      "name": "RootNode"
    },
    {
      "children": [
        4,
        5
      ],
      "matrix": [
        100.0,
        0.0,
        0.0,
        0.0,
        0.0,
        99.9999999999999,
        4.371138828673792e-06,
        0.0,
        0.0,
        -4.371138828673792e-06,
        99.9999999999999,
        0.0,
        -90.09102630615234,
        -194.36123657226563,
        -7.054389953613281,
        1.0
      ],
      "name": "door"
    },
    {
      "mesh": 0,
      "name": "door_door_0"
    },
    {
      "mesh": 1,
      "name": "door_puller_0"
    },
    {
      "children": [
        7
      ],
      "matrix": [
        100.0,
        0.0,
        0.0,
        0.0,
        0.0,
        99.9999999999999,
        4.371138828673792e-06,
        0.0,
        0.0,
        -6.9884629186502245e-06,
        159.87739562988264,
        0.0,
        -7.529162406921387,
        137.8401641845703,
        -12.684347152709961,
        1.0
      ],
      "name": "frame"
    },
    {
      "mesh": 2,
      "name": "frame_door_frame_0"
    }
  ],
  "samplers": [
    {
      "magFilter": 9729,
      "minFilter": 9987,
      "wrapS": 10497,
      "wrapT": 10497
    }
  ],
  "scene": 0,
  "scenes": [
    {
      "name": "Sketchfab_Scene",
      "nodes": [
        0
      ]
    }
  ],
  "textures": [
    {
      "sampler": 0,
      "source": 0
    }
  ]
}
